<?xml version="1.0" standalone="no"?>
<!DOCTYPE svg PUBLIC "-//W3C//DTD SVG 20010904//EN"
 "http://www.w3.org/TR/2001/REC-SVG-20010904/DTD/svg10.dtd">
<svg version="1.0" xmlns="http://www.w3.org/2000/svg"
 width="571.000000pt" height="571.000000pt" viewBox="0 0 571.000000 571.000000"
 preserveAspectRatio="xMidYMid meet">
<metadata>
Created by potrace 1.14, written by Peter Selinger 2001-2017
</metadata>
<g transform="translate(0.000000,571.000000) scale(0.100000,-0.100000)"
fill="#000000" stroke="none">
<path d="M16 2888 c1 -475 2 -871 3 -881 1 -16 22 -17 334 -14 182 2 341 6
352 10 222 66 367 248 374 467 4 141 -51 284 -145 375 l-53 52 40 55 c21 31
51 87 66 124 24 61 27 82 27 184 0 96 -4 125 -24 175 -62 159 -171 257 -334
299 -42 11 -127 15 -348 16 l-293 1 1 -863z m567 618 c84 -13 162 -82 193
-173 17 -49 10 -145 -16 -197 -26 -55 -95 -118 -144 -133 -20 -6 -110 -12
-201 -13 l-165 -1 0 260 0 260 33 3 c53 5 252 1 300 -6z m63 -761 c197 -36
269 -304 120 -446 -67 -65 -107 -72 -428 -70 l-88 1 0 259 c0 235 2 260 17
263 31 6 341 1 379 -7z"/>
<path d="M4370 2869 l0 -879 118 0 117 0 -1 241 0 241 35 -39 c20 -21 110
-129 201 -240 l165 -201 153 -1 152 0 -42 52 c-24 29 -162 195 -308 371 -146
175 -267 323 -269 329 -2 5 14 26 35 45 22 19 88 80 148 136 60 55 120 112
135 125 142 131 291 271 291 276 0 1 -73 3 -162 3 -180 0 -176 1 -249 -69
-103 -100 -271 -254 -278 -257 -4 -1 -7 165 -7 370 l0 373 -117 1 -117 1 0
-878z"/>
<path d="M5565 3742 c-73 -16 -118 -110 -84 -175 61 -112 229 -69 229 60 0 70
-75 130 -145 115z"/>
<path d="M1788 3295 c-230 -67 -390 -222 -464 -450 -33 -100 -39 -233 -17
-332 16 -73 80 -223 94 -223 5 0 9 -7 9 -15 0 -23 139 -157 205 -197 101 -61
204 -91 325 -95 122 -3 202 13 305 60 188 86 327 261 375 472 38 165 -12 392
-118 535 -155 212 -464 318 -714 245z m292 -226 c197 -64 324 -242 314 -442
-7 -145 -98 -293 -222 -360 -241 -130 -519 -22 -618 239 -88 234 57 502 305
565 68 17 164 16 221 -2z"/>
<path d="M3311 3303 c-180 -42 -360 -183 -443 -348 -93 -182 -97 -418 -12
-587 150 -297 462 -447 766 -369 392 101 607 503 469 881 -61 166 -170 288
-323 363 -51 25 -123 52 -160 60 -86 19 -214 19 -297 0z m292 -244 c305 -103
390 -494 157 -726 -41 -42 -139 -98 -190 -109 -183 -40 -358 27 -461 176 -59
85 -79 154 -76 265 3 84 6 99 40 168 102 207 316 298 530 226z"/>
<path d="M3394 2931 c-61 -37 -83 -143 -39 -191 17 -18 17 -75 1 -170 -2 -14
-7 -47 -11 -75 -3 -27 -9 -65 -11 -82 l-5 -33 136 0 136 0 -5 38 c-3 20 -8 64
-12 97 -3 33 -10 91 -14 129 -7 60 -6 75 11 107 23 46 24 80 3 125 -32 68
-125 95 -190 55z"/>
<path d="M5484 2655 l1 -660 110 -3 110 -2 -1 655 c0 360 -3 657 -6 661 -4 3
-53 6 -111 7 l-104 2 1 -660z"/>
</g>
</svg>
